<svg width="52" height="23" viewBox="0 0 52 23" fill="none" xmlns="http://www.w3.org/2000/svg">
  <path d="M4.40625 18.6467C3.9375 18.6467 3.46484 18.5764 2.98828 18.4357C2.51562 18.2912 2.08203 18.0549 1.6875 17.7267C1.29297 17.3986 0.976562 16.9572 0.738281 16.4025C0.5 15.8478 0.380859 15.1584 0.380859 14.3342C0.380859 13.5607 0.501953 12.8986 0.744141 12.3478C0.990234 11.7932 1.30859 11.342 1.69922 10.9943C2.08984 10.6467 2.51172 10.3908 2.96484 10.2267C3.42188 10.0627 3.86133 9.98065 4.2832 9.98065C4.80273 9.98065 5.23438 10.0119 5.57812 10.0744C5.92578 10.133 6.20898 10.2033 6.42773 10.2853C6.65039 10.3635 6.83008 10.4338 6.9668 10.4963L7.0957 12.3303C7.10352 12.3967 7.07227 12.4533 7.00195 12.5002C6.93164 12.5432 6.87305 12.5646 6.82617 12.5646C6.81445 12.5646 6.80273 12.5666 6.79102 12.5705C6.7832 12.5705 6.77344 12.5705 6.76172 12.5705C6.71094 12.5705 6.66602 12.5588 6.62695 12.5353C6.58789 12.508 6.56445 12.4631 6.55664 12.4006C6.4668 12.0724 6.32812 11.7678 6.14062 11.4865C5.95703 11.2014 5.71289 10.9728 5.4082 10.801C5.10352 10.6291 4.72461 10.5432 4.27148 10.5432C4.02148 10.5432 3.75781 10.5842 3.48047 10.6662C3.20312 10.7443 2.94336 10.9084 2.70117 11.1584C2.46289 11.4084 2.26758 11.7873 2.11523 12.2951C1.96289 12.799 1.88672 13.4787 1.88672 14.3342C1.88672 15.1467 1.9707 15.801 2.13867 16.2971C2.31055 16.7932 2.52734 17.1721 2.78906 17.4338C3.05469 17.6916 3.33008 17.8654 3.61523 17.9553C3.9043 18.0451 4.16602 18.09 4.40039 18.09C4.8457 18.09 5.21094 18.006 5.49609 17.8381C5.78516 17.6662 6.01172 17.4396 6.17578 17.1584C6.33984 16.8732 6.45312 16.5627 6.51562 16.2267C6.53125 16.1486 6.55469 16.0978 6.58594 16.0744C6.62109 16.0471 6.66992 16.0334 6.73242 16.0334C6.7793 16.0334 6.84961 16.051 6.94336 16.0861C7.04102 16.1174 7.08984 16.1662 7.08984 16.2326L6.90234 17.8381C6.89844 17.8928 6.78906 17.9865 6.57422 18.1193C6.35938 18.2482 6.06445 18.3674 5.68945 18.4767C5.31836 18.59 4.89062 18.6467 4.40625 18.6467ZM8.13867 18.4709C8.07617 18.4709 8.02344 18.4474 7.98047 18.4006C7.94141 18.3498 7.92188 18.2932 7.92188 18.2307C7.92188 18.1017 7.98633 18.0295 8.11523 18.0139C8.25977 17.9982 8.41016 17.965 8.56641 17.9142C8.72266 17.8596 8.80078 17.7678 8.80078 17.6389L8.80664 10.6252C8.80664 10.383 8.75 10.217 8.63672 10.1271C8.52344 10.0373 8.39258 9.9826 8.24414 9.96307C8.0957 9.94354 7.96875 9.9201 7.86328 9.89276C7.82422 9.87323 7.79102 9.84784 7.76367 9.81659C7.73633 9.78534 7.72266 9.7326 7.72266 9.65839C7.72266 9.61151 7.73438 9.55682 7.75781 9.49432C7.78125 9.43182 7.81641 9.39862 7.86328 9.39471C8.25391 9.37128 8.61719 9.3576 8.95312 9.3537C9.28906 9.34979 9.54102 9.34589 9.70898 9.34198C9.74023 9.34198 9.77539 9.3576 9.81445 9.38885C9.85352 9.4201 9.87695 9.4826 9.88477 9.57635V17.4455C9.88477 17.6135 9.92383 17.7365 10.002 17.8146C10.084 17.8889 10.1797 17.9377 10.2891 17.9611C10.4023 17.9846 10.5059 18.0021 10.5996 18.0139C10.6816 18.0217 10.7363 18.0412 10.7637 18.0724C10.7949 18.0998 10.8105 18.1467 10.8105 18.2131C10.8105 18.2834 10.7891 18.3439 10.7461 18.3947C10.707 18.4455 10.6523 18.4709 10.582 18.4709H8.13867ZM11.7129 17.0471C11.7129 16.6603 11.8145 16.342 12.0176 16.092C12.2246 15.8381 12.4961 15.6369 12.832 15.4885C13.168 15.3361 13.5371 15.2209 13.9395 15.1428C14.3418 15.0607 14.7383 15.0002 15.1289 14.9611V14.0588C15.1289 13.9142 15.0918 13.7658 15.0176 13.6135C14.9473 13.4572 14.8242 13.3264 14.6484 13.2209C14.4766 13.1115 14.2344 13.0568 13.9219 13.0568C13.7539 13.0568 13.6289 13.0685 13.5469 13.092C13.4648 13.1115 13.3984 13.133 13.3477 13.1564L12.6445 14.5744C12.4258 14.5744 12.2266 14.5256 12.0469 14.4279C11.8711 14.3264 11.7832 14.1486 11.7832 13.8947C11.7832 13.7189 11.8379 13.551 11.9473 13.3908C12.0605 13.2267 12.2207 13.0803 12.4277 12.9514C12.6387 12.8224 12.8906 12.7209 13.1836 12.6467C13.4805 12.5685 13.8125 12.5295 14.1797 12.5295C14.6211 12.5295 14.9766 12.5842 15.2461 12.6935C15.5195 12.8029 15.7266 12.9494 15.8672 13.133C16.0117 13.3166 16.1094 13.5217 16.1602 13.7482C16.2109 13.9709 16.2363 14.1994 16.2363 14.4338V17.2932C16.2363 17.4455 16.2578 17.5881 16.3008 17.7209C16.3438 17.8537 16.3965 17.9201 16.459 17.9201C16.5137 17.9201 16.5605 17.9182 16.5996 17.9142C16.6426 17.9064 16.6992 17.8928 16.7695 17.8732C16.8359 17.8537 16.8906 17.8771 16.9336 17.9435C16.9805 18.006 17.0039 18.0666 17.0039 18.1252C17.0039 18.1682 16.9922 18.1994 16.9688 18.2189C16.8672 18.2932 16.7148 18.3732 16.5117 18.4592C16.3086 18.5412 16.0859 18.5822 15.8438 18.5822C15.6406 18.5822 15.4883 18.5392 15.3867 18.4533C15.2852 18.3674 15.2344 18.1799 15.2344 17.8908V17.7736C14.9805 18.0392 14.7051 18.2424 14.4082 18.383C14.1152 18.5236 13.7637 18.5939 13.3535 18.5939C13.1191 18.5939 12.875 18.5432 12.6211 18.4416C12.3672 18.34 12.1523 18.176 11.9766 17.9494C11.8008 17.7228 11.7129 17.4221 11.7129 17.0471ZM12.9375 17.0178C12.9375 17.2639 13.0117 17.4807 13.1602 17.6682C13.3125 17.8517 13.5176 17.9435 13.7754 17.9435C14.0996 17.9435 14.375 17.8889 14.6016 17.7795C14.832 17.6701 15.0059 17.5568 15.123 17.4396V15.3771C14.7012 15.4396 14.3262 15.5217 13.998 15.6232C13.6699 15.7209 13.4102 15.8771 13.2188 16.092C13.0312 16.3029 12.9375 16.6115 12.9375 17.0178ZM17.8887 18.4709C17.8223 18.4709 17.7715 18.4416 17.7363 18.383C17.7051 18.3244 17.6895 18.2736 17.6895 18.2307C17.6895 18.1017 17.7539 18.0295 17.8828 18.0139C18.043 17.9982 18.1953 17.965 18.3398 17.9142C18.4883 17.8596 18.5625 17.7678 18.5625 17.6389V13.9123C18.5625 13.6701 18.5117 13.5041 18.4102 13.4142C18.3086 13.3244 18.1895 13.2697 18.0527 13.2502C17.916 13.2307 17.7949 13.2072 17.6895 13.1799C17.6504 13.1603 17.6172 13.1349 17.5898 13.1037C17.5625 13.0724 17.5488 13.0197 17.5488 12.9455C17.5488 12.8986 17.5605 12.8459 17.584 12.7873C17.6113 12.7287 17.6465 12.6974 17.6895 12.6935C18.0801 12.6701 18.4238 12.6486 18.7207 12.6291C19.0176 12.6096 19.25 12.5978 19.418 12.5939C19.4492 12.5939 19.4844 12.6096 19.5234 12.6408C19.5625 12.6721 19.5859 12.7346 19.5938 12.8283V13.6779C19.7148 13.4865 19.8457 13.3049 19.9863 13.133C20.1309 12.9572 20.293 12.8127 20.4727 12.6994C20.6523 12.5861 20.8594 12.5295 21.0938 12.5295C21.3438 12.5295 21.5312 12.5705 21.6562 12.6525C21.7812 12.7346 21.8652 12.8381 21.9082 12.9631C21.9512 13.0881 21.9727 13.2189 21.9727 13.3557C21.9727 13.5041 21.9258 13.6271 21.832 13.7248C21.7422 13.8185 21.6367 13.8889 21.5156 13.9357C21.3984 13.9826 21.3008 14.006 21.2227 14.006L20.666 13.3029C20.5488 13.3029 20.4238 13.3478 20.291 13.4377C20.1621 13.5275 20.041 13.6467 19.9277 13.7951C19.8145 13.9435 19.7227 14.1037 19.6523 14.2756V17.4455C19.6523 17.6135 19.707 17.7365 19.8164 17.8146C19.9297 17.8889 20.0645 17.9377 20.2207 17.9611C20.3809 17.9846 20.5273 18.0021 20.6602 18.0139C20.7422 18.0217 20.7969 18.0373 20.8242 18.0607C20.8555 18.0842 20.8711 18.1408 20.8711 18.2307C20.8711 18.2736 20.8535 18.3244 20.8184 18.383C20.7871 18.4416 20.7383 18.4709 20.6719 18.4709H17.8887ZM22.7227 18.4709C22.6562 18.4709 22.6055 18.4416 22.5703 18.383C22.5391 18.3244 22.5234 18.2736 22.5234 18.2307C22.5234 18.1017 22.5879 18.0295 22.7168 18.0139C22.8613 17.9943 23.0098 17.9592 23.1621 17.9084C23.3145 17.8576 23.3906 17.7678 23.3906 17.6389L23.3965 13.9123C23.3965 13.6701 23.3457 13.5041 23.2441 13.4142C23.1426 13.3244 23.0234 13.2697 22.8867 13.2502C22.75 13.2307 22.6289 13.2072 22.5234 13.1799C22.4844 13.1603 22.4512 13.1349 22.4238 13.1037C22.3965 13.0724 22.3828 13.0197 22.3828 12.9455C22.3828 12.8986 22.3945 12.8459 22.418 12.7873C22.4414 12.7248 22.4766 12.6916 22.5234 12.6877C22.9141 12.6642 23.2676 12.6486 23.584 12.6408C23.9004 12.633 24.1426 12.6291 24.3105 12.6291C24.3418 12.6291 24.377 12.6447 24.416 12.676C24.4551 12.7072 24.4785 12.7697 24.4863 12.8635V17.4455C24.4863 17.6135 24.5254 17.7365 24.6035 17.8146C24.6855 17.8889 24.7812 17.9377 24.8906 17.9611C25.0039 17.9846 25.1074 18.0021 25.2012 18.0139C25.2832 18.0217 25.3379 18.0373 25.3652 18.0607C25.3965 18.0842 25.4121 18.1408 25.4121 18.2307C25.4121 18.2736 25.3945 18.3244 25.3594 18.383C25.3281 18.4416 25.2793 18.4709 25.2129 18.4709H22.7227ZM23.9238 11.5978C23.709 11.5978 23.5371 11.5197 23.4082 11.3635C23.2793 11.2033 23.2148 11.0099 23.2148 10.7834C23.2148 10.5529 23.2793 10.3596 23.4082 10.2033C23.5371 10.0471 23.709 9.96893 23.9238 9.96893C24.1387 9.96893 24.3105 10.0471 24.4395 10.2033C24.5684 10.3596 24.6328 10.5529 24.6328 10.7834C24.6328 11.0099 24.5684 11.2033 24.4395 11.3635C24.3105 11.5197 24.1387 11.5978 23.9238 11.5978ZM26.1973 18.4709C26.1309 18.4709 26.0801 18.4416 26.0449 18.383C26.0137 18.3244 25.998 18.2736 25.998 18.2307C25.998 18.1017 26.0625 18.0295 26.1914 18.0139C26.3359 17.9943 26.4766 17.9592 26.6133 17.9084C26.75 17.8576 26.8184 17.7678 26.8184 17.6389V13.1564H26.0977C26.0508 13.1525 26.0156 13.131 25.9922 13.092C25.9688 13.049 25.957 13.0041 25.957 12.9572C25.957 12.8283 26.0039 12.7443 26.0977 12.7053L26.8125 12.6467L26.8184 11.7795C26.8223 11.2795 26.916 10.84 27.0996 10.4611C27.2871 10.0822 27.5371 9.78729 27.8496 9.57635C28.166 9.36151 28.5156 9.25409 28.8984 9.25409C29.2734 9.25409 29.5547 9.33221 29.7422 9.48846C29.9297 9.64081 30.0234 9.8205 30.0234 10.0275C30.0234 10.1838 29.9844 10.3205 29.9062 10.4377C29.832 10.551 29.7441 10.6408 29.6426 10.7072C29.5449 10.7697 29.4609 10.801 29.3906 10.801C29.375 10.801 29.3613 10.799 29.3496 10.7951C29.3418 10.7912 29.334 10.7873 29.3262 10.7834L28.6875 9.82831C28.6523 9.82831 28.5918 9.83612 28.5059 9.85175C28.4238 9.86737 28.3359 9.92401 28.2422 10.0217C28.1523 10.1193 28.0742 10.2912 28.0078 10.5373C27.9414 10.7795 27.9082 11.131 27.9082 11.592V12.6467H29.1387C29.1855 12.6506 29.2207 12.674 29.2441 12.717C29.2676 12.756 29.2793 12.799 29.2793 12.8459C29.2793 12.9201 29.2656 12.9865 29.2383 13.0451C29.2148 13.0998 29.1816 13.1369 29.1387 13.1564H27.9082V17.4455C27.9082 17.6135 27.9648 17.7346 28.0781 17.8088C28.1914 17.883 28.3262 17.9318 28.4824 17.9553C28.6426 17.9787 28.7852 17.9982 28.9102 18.0139C28.9922 18.0217 29.0469 18.0373 29.0742 18.0607C29.1055 18.0842 29.1211 18.1408 29.1211 18.2307C29.1211 18.2736 29.1035 18.3244 29.0684 18.383C29.0371 18.4416 28.9883 18.4709 28.9219 18.4709H26.1973ZM29.5723 18.4709C29.5098 18.4709 29.4609 18.4416 29.4258 18.383C29.3906 18.3205 29.373 18.2502 29.373 18.1721C29.373 18.0822 29.3887 18.0256 29.4199 18.0021C29.4473 17.9787 29.502 17.9631 29.584 17.9553C29.6816 17.9435 29.7871 17.9377 29.9004 17.9377C30.0176 17.9338 30.127 17.9045 30.2285 17.8498C30.334 17.7912 30.418 17.676 30.4805 17.5041L33.1641 10.0275H34.1016L36.709 17.5041C36.7715 17.676 36.8535 17.7912 36.9551 17.8498C37.0566 17.9045 37.1641 17.9338 37.2773 17.9377C37.3945 17.9377 37.5 17.9435 37.5938 17.9553C37.6758 17.9631 37.7305 17.9787 37.7578 18.0021C37.7891 18.0256 37.8047 18.0822 37.8047 18.1721C37.8047 18.215 37.7871 18.2756 37.752 18.3537C37.7207 18.4318 37.6719 18.4709 37.6055 18.4709H34.6699C34.6035 18.4709 34.5527 18.4318 34.5176 18.3537C34.4863 18.2756 34.4707 18.215 34.4707 18.1721C34.4707 18.0432 34.5352 17.9709 34.6641 17.9553C34.9023 17.9435 35.0957 17.9338 35.2441 17.926C35.3926 17.9182 35.4668 17.8693 35.4668 17.7795C35.4668 17.7521 35.4609 17.7248 35.4492 17.6974L34.6582 15.3244L35.0098 15.5764H31.6641L32.0098 15.3244L31.2129 17.6974C31.2051 17.717 31.2012 17.7404 31.2012 17.7678C31.2012 17.8654 31.2832 17.9182 31.4473 17.926C31.6152 17.9299 31.8184 17.9396 32.0566 17.9553C32.1855 17.9709 32.25 18.0432 32.25 18.1721C32.25 18.215 32.2324 18.2756 32.1973 18.3537C32.166 18.4318 32.1172 18.4709 32.0508 18.4709H29.5723ZM32.0156 15.3244L31.834 15.0724H34.834L34.6582 15.3244L33.3926 11.5158L32.0156 15.3244ZM38.4668 18.4709C38.4004 18.4709 38.3496 18.4318 38.3145 18.3537C38.2832 18.2756 38.2676 18.215 38.2676 18.1721C38.2676 18.0392 38.332 17.967 38.4609 17.9553C38.6484 17.9396 38.8359 17.9064 39.0234 17.8557C39.2148 17.801 39.3105 17.7092 39.3105 17.5803L39.3164 11.2404C39.3164 11.0724 39.2656 10.9514 39.1641 10.8771C39.0664 10.8029 38.9492 10.7541 38.8125 10.7307C38.6758 10.7033 38.5469 10.6838 38.4258 10.6721C38.3438 10.6642 38.2871 10.6486 38.2559 10.6252C38.2285 10.5978 38.2148 10.5412 38.2148 10.4553C38.2148 10.4123 38.2305 10.3517 38.2617 10.2736C38.2969 10.1955 38.3477 10.1564 38.4141 10.1564H41.373C41.4395 10.1564 41.4883 10.1955 41.5195 10.2736C41.5547 10.3517 41.5723 10.4123 41.5723 10.4553C41.5723 10.5881 41.5078 10.6603 41.3789 10.6721C41.1914 10.6877 41.002 10.7228 40.8105 10.7775C40.623 10.8283 40.5293 10.9182 40.5293 11.0471L40.5234 17.3869C40.5234 17.5549 40.5723 17.676 40.6699 17.7502C40.7715 17.8244 40.8906 17.8732 41.0273 17.8967C41.168 17.9201 41.2969 17.9396 41.4141 17.9553C41.4961 17.9631 41.5508 17.9787 41.5781 18.0021C41.6094 18.0256 41.625 18.0822 41.625 18.1721C41.625 18.215 41.6074 18.2756 41.5723 18.3537C41.541 18.4318 41.4922 18.4709 41.4258 18.4709H38.4668Z" fill="white"/>
  <g filter="url(#filter0_d_21_25)">
    <circle cx="43.0218" cy="4.94977" r="3" transform="rotate(-45.0254 43.0218 4.94977)" fill="#606060" stroke="#606060"/>
    <line x1="47.4379" y1="9.36201" x2="45.144" y2="7.07013" stroke="#606060" stroke-linecap="round"/>
  </g>
  <circle cx="40.0218" cy="4.94977" r="3" transform="rotate(-45.0254 40.0218 4.94977)" stroke="white"/>
  <line x1="44.4379" y1="9.36201" x2="42.144" y2="7.07013" stroke="white" stroke-linecap="round"/>
  <defs>
    <filter id="filter0_d_21_25" x="35.5218" y="1.44977" width="16.4162" height="16.4122" filterUnits="userSpaceOnUse" color-interpolation-filters="sRGB">
      <feFlood flood-opacity="0" result="BackgroundImageFix"/>
      <feColorMatrix in="SourceAlpha" type="matrix" values="0 0 0 0 0 0 0 0 0 0 0 0 0 0 0 0 0 0 127 0" result="hardAlpha"/>
      <feOffset dy="4"/>
      <feGaussianBlur stdDeviation="2"/>
      <feComposite in2="hardAlpha" operator="out"/>
      <feColorMatrix type="matrix" values="0 0 0 0 0 0 0 0 0 0 0 0 0 0 0 0 0 0 0.25 0"/>
      <feBlend mode="normal" in2="BackgroundImageFix" result="effect1_dropShadow_21_25"/>
      <feBlend mode="normal" in="SourceGraphic" in2="effect1_dropShadow_21_25" result="shape"/>
    </filter>
  </defs>
</svg>
