<svg width="224" height="87" viewBox="0 0 224 87" fill="none" xmlns="http://www.w3.org/2000/svg">
<path d="M21.3759 86.768C16.8533 86.768 12.9919 85.7653 9.79194 83.76C6.59194 81.712 4.15994 78.9387 2.49594 75.44C0.831944 71.9413 -5.65052e-05 67.9947 -5.65052e-05 63.6C-5.65052e-05 59.248 0.81061 55.3227 2.43194 51.824C4.09594 48.3253 6.52794 45.552 9.72794 43.504C12.9279 41.456 16.8106 40.432 21.3759 40.432C26.4959 40.432 30.6559 41.6693 33.8559 44.144C37.0986 46.576 39.1679 49.9893 40.0639 54.384H34.1119C33.4293 51.6107 32.0213 49.392 29.8879 47.728C27.7973 46.0213 24.9599 45.168 21.3759 45.168C17.8346 45.168 14.8906 46 12.5439 47.664C10.1973 49.2853 8.42661 51.4827 7.23194 54.256C6.07994 57.0293 5.50394 60.144 5.50394 63.6C5.50394 67.1413 6.10128 70.2987 7.29594 73.072C8.53328 75.8453 10.3253 78.0427 12.6719 79.664C15.0186 81.2427 17.9199 82.032 21.3759 82.032C24.9599 82.032 27.7973 81.2213 29.8879 79.6C32.0213 77.936 33.4293 75.7387 34.1119 73.008H40.0639C39.1679 77.3173 37.0986 80.688 33.8559 83.12C30.6559 85.552 26.4959 86.768 21.3759 86.768ZM47.4704 86V41.2H52.8464V86H47.4704ZM72.2179 86.768C70.0419 86.768 68.0579 86.4053 66.2659 85.68C64.4739 84.9547 63.0446 83.8667 61.9779 82.416C60.9539 80.9227 60.4419 79.1093 60.4419 76.976C60.4419 74.5013 61.0819 72.5387 62.3619 71.088C63.6419 69.5947 65.3273 68.528 67.4179 67.888C69.5513 67.2053 71.8339 66.864 74.2659 66.864H82.8419C82.8419 64.6453 82.4579 62.896 81.6899 61.616C80.9646 60.336 80.0046 59.4187 78.8099 58.864C77.6153 58.3093 76.2926 58.032 74.8419 58.032C72.7513 58.032 70.9379 58.544 69.4019 59.568C67.9086 60.5493 66.9699 62.0853 66.5859 64.176H61.0819C61.2953 61.872 62.0633 59.9307 63.3859 58.352C64.7086 56.7733 66.3726 55.5787 68.3779 54.768C70.4259 53.9147 72.5806 53.488 74.8419 53.488C78.0419 53.488 80.6233 54.0853 82.5859 55.28C84.5486 56.432 85.9779 57.9893 86.8739 59.952C87.7699 61.9147 88.2179 64.0907 88.2179 66.48V76.208C88.2179 77.7867 88.4099 78.9813 88.7939 79.792C89.1779 80.6027 90.1593 81.0933 91.7379 81.264V86C90.3299 86 89.0499 85.8293 87.8979 85.488C86.7459 85.104 85.7646 84.5067 84.9539 83.696C84.1859 82.8427 83.6313 81.7333 83.2899 80.368C82.2233 82.16 80.7513 83.6747 78.8739 84.912C77.0393 86.1493 74.8206 86.768 72.2179 86.768ZM73.0499 82.224C75.1833 82.224 76.9753 81.6907 78.4259 80.624C79.8766 79.5147 80.9646 78.1067 81.6899 76.4C82.4579 74.6933 82.8419 72.9227 82.8419 71.088V71.024H74.7139C73.2206 71.024 71.8126 71.1947 70.4899 71.536C69.1673 71.8347 68.1006 72.4107 67.2899 73.264C66.4793 74.0747 66.0739 75.2267 66.0739 76.72C66.0739 78.64 66.7566 80.048 68.1219 80.944C69.4873 81.7973 71.1299 82.224 73.0499 82.224ZM98.2204 86V54.256H103.084L103.532 60.336C104.514 58.2453 106.007 56.5813 108.012 55.344C110.018 54.1067 112.492 53.488 115.436 53.488V59.12H113.964C110.466 59.12 107.863 60.0587 106.156 61.936C104.45 63.8133 103.596 66.5013 103.596 70V86H98.2204ZM124.734 47.216C123.668 47.216 122.772 46.8747 122.046 46.192C121.364 45.4667 121.022 44.5707 121.022 43.504C121.022 42.48 121.364 41.6267 122.046 40.944C122.772 40.2613 123.668 39.92 124.734 39.92C125.758 39.92 126.633 40.2613 127.358 40.944C128.084 41.6267 128.446 42.48 128.446 43.504C128.446 44.5707 128.084 45.4667 127.358 46.192C126.633 46.8747 125.758 47.216 124.734 47.216ZM122.046 86V54.256H127.422V86H122.046ZM138.511 86V58.8H133.711V54.256H138.511V50.032C138.511 46.96 139.279 44.72 140.815 43.312C142.351 41.904 144.591 41.2 147.535 41.2H150.735V45.808H148.367C146.746 45.808 145.594 46.1493 144.911 46.832C144.228 47.472 143.887 48.5813 143.887 50.16V54.256H151.695V58.8H143.887V86H138.511ZM155.599 86L172.111 41.2H177.807L194.255 86H188.559L184.463 74.48H165.391L161.231 86H155.599ZM166.991 70.128H182.863L174.927 47.984L166.991 70.128ZM200.915 86V41.2H206.291V86H200.915Z" fill="#0f172a"/>
<path d="M203.804 32.625C211.433 32.625 217.617 26.4411 217.617 18.8125C217.617 11.1839 211.433 5 203.804 5C196.176 5 189.992 11.1839 189.992 18.8125C189.992 26.4411 196.176 32.625 203.804 32.625Z" stroke="#0f172a" stroke-width="4" stroke-linejoin="round"/>
<path d="M208.401 13.4037C207.798 12.7994 207.081 12.3202 206.293 11.9935C205.504 11.6668 204.658 11.4991 203.805 11.5C202.951 11.4991 202.105 11.6668 201.317 11.9935C200.528 12.3202 199.811 12.7994 199.208 13.4037M213.735 28.7429L220.629 35.6369" stroke="#0f172a" stroke-width="4" stroke-linecap="round" stroke-linejoin="round"/>
</svg>
